<?xml version="1.0" encoding="UTF-8" standalone="no"?>
<svg
   id="Capa_1"
   enable-background="new 0 0 512 512"
   height="512"
   viewBox="0 0 1776.0351 512"
   width="1776.035"
   version="1.1"
   sodipodi:docname="logo-with-text.svg"
   xml:space="preserve"
   inkscape:version="1.3 (0e150ed, 2023-07-21)"
   inkscape:export-filename="png/128.png"
   inkscape:export-xdpi="24"
   inkscape:export-ydpi="24"
   xmlns:inkscape="http://www.inkscape.org/namespaces/inkscape"
   xmlns:sodipodi="http://sodipodi.sourceforge.net/DTD/sodipodi-0.dtd"
   xmlns="http://www.w3.org/2000/svg"
   xmlns:svg="http://www.w3.org/2000/svg"><defs
     id="defs21" /><sodipodi:namedview
     id="namedview21"
     pagecolor="#ffffff"
     bordercolor="#000000"
     borderopacity="0.25"
     inkscape:showpageshadow="2"
     inkscape:pageopacity="0.0"
     inkscape:pagecheckerboard="0"
     inkscape:deskcolor="#d1d1d1"
     inkscape:zoom="0.23046875"
     inkscape:cx="928.54237"
     inkscape:cy="151.86441"
     inkscape:window-width="1512"
     inkscape:window-height="945"
     inkscape:window-x="0"
     inkscape:window-y="37"
     inkscape:window-maximized="0"
     inkscape:current-layer="Capa_1" /><g
     id="g27"
     transform="translate(0,58.678)"><path
       style="font-size:37.3333px;font-family:monofur;-inkscape-font-specification:monofur;letter-spacing:-0.25px;fill:#5c90b9;fill-opacity:1;stroke-width:27.429;stroke-linecap:square;paint-order:markers stroke fill"
       d="m 1776.0352,293.3234 q 0,10.66687 -10.6668,10.66687 -10.6668,0 -10.6668,-10.66687 v -74.66781 q 0,-17.63575 -12.5158,-30.15152 -12.5157,-12.51577 -30.1515,-12.51577 -17.6358,0 -30.1516,12.51577 -12.5158,12.51577 -12.5158,30.15152 v 74.66782 q 0,10.66687 -10.6668,10.66687 -10.6668,0 -10.6668,-10.66687 v -192.0029 q 0,-10.66678 10.6668,-10.66678 10.6668,0 10.6668,10.66678 v 69.68999 q 18.2047,-16.35583 42.6674,-16.35583 26.4537,0 45.2273,18.77359 18.7736,18.77362 18.7736,45.22733 z"
       id="path27" /><path
       style="font-size:37.3333px;font-family:monofur;-inkscape-font-specification:monofur;letter-spacing:-0.25px;fill:#5c90b9;fill-opacity:1;stroke-width:27.429;stroke-linecap:square;paint-order:markers stroke fill"
       d="m 1604.9501,255.91846 q 0,22.75584 -22.8981,36.40945 -19.4848,11.66236 -43.8052,11.66236 -18.2047,0 -34.8449,-6.96898 -19.2003,-8.10683 -26.7382,-22.47149 -1.5645,-2.98666 -1.5645,-5.5467 0,-4.26676 3.4135,-7.39568 3.4133,-3.12892 7.6801,-3.12892 4.8355,0 8.9601,5.54669 14.0802,18.63143 43.0939,18.63143 28.7294,0 40.9607,-15.78695 4.4089,-5.68896 4.4089,-10.95121 0,-8.67571 -9.9557,-16.07139 -7.9646,-5.68896 -18.2047,-8.249 -8.5335,-2.27561 -19.3425,-2.27561 -18.3469,0 -32.8538,-9.24458 -16.7825,-10.66687 -16.7825,-28.16045 0,-17.49359 17.2092,-28.16036 14.7912,-9.10241 33.5649,-9.10241 11.6624,0 23.1826,4.1245 13.2268,4.69338 19.3425,12.8002 2.8444,3.6978 2.8444,6.96898 0,4.26677 -3.4133,7.53795 -3.2712,3.2711 -7.6801,3.2711 -1.8489,0 -11.8047,-6.68454 -9.8134,-6.68455 -22.4714,-6.68455 -19.3425,0 -27.1648,10.52461 -2.2756,2.98674 -2.2756,5.40452 0,10.24016 17.778,14.6491 5.9734,1.42229 14.2225,1.42229 23.8937,0 42.9517,11.80462 22.187,13.79579 22.187,36.12502 z"
       id="path26" /><path
       style="font-size:37.3333px;font-family:monofur;-inkscape-font-specification:monofur;letter-spacing:-0.25px;stroke-width:27.429;stroke-linecap:square;paint-order:markers stroke fill"
       d="m 1446.3808,229.32246 q 0,30.86267 -21.9027,52.76529 -21.9025,21.90252 -52.7651,21.90252 -30.8628,0 -52.7653,-21.90252 -21.9025,-21.90262 -21.9025,-52.76529 0,-30.86266 21.9025,-52.76528 21.9025,-21.90252 52.7653,-21.90252 30.8626,0 52.7651,21.90252 21.9027,21.90262 21.9027,52.76528 z m -21.3338,0 q 0,-22.04479 -15.6447,-37.68947 -15.6446,-15.64469 -37.6893,-15.64469 -22.0448,0 -37.6895,15.64469 -15.6447,15.64468 -15.6447,37.68948 0,22.04478 15.6447,37.68948 15.6447,15.64468 37.6895,15.64468 22.0447,0 37.6893,-15.64468 15.6447,-15.6447 15.6447,-37.68949 z"
       id="path25" /><path
       style="font-size:37.3333px;font-family:monofur;-inkscape-font-specification:monofur;letter-spacing:-0.25px;stroke-width:27.429;stroke-linecap:square;paint-order:markers stroke fill"
       d="m 1277.9979,229.32246 q 0,30.29379 -20.3382,52.19632 -20.7647,22.47149 -50.7741,22.47149 -30.0092,0 -50.774,-22.47149 -20.3382,-21.90253 -20.3382,-52.19632 V 101.3205 q 0,-10.66678 10.6669,-10.66678 10.6668,0 10.6668,10.66678 v 74.6678 q 20.6226,-21.33364 49.7785,-21.33364 30.0094,0 50.7741,22.47149 20.3382,21.90252 20.3382,52.19631 z m -21.3337,0 q 0,-21.47591 -14.0802,-37.12059 -14.5069,-16.21357 -35.6984,-16.21357 -21.1914,0 -35.6983,16.21357 -14.0802,15.64468 -14.0802,37.12059 0,21.47591 14.0802,37.1206 14.5069,16.21357 35.6983,16.21357 21.1915,0 35.6984,-16.21357 14.0802,-15.64469 14.0802,-37.1206 z"
       id="path24" /><path
       style="font-size:37.3333px;font-family:monofur;-inkscape-font-specification:monofur;letter-spacing:-0.25px;stroke-width:27.429;stroke-linecap:square;paint-order:markers stroke fill"
       d="m 1109.615,293.3234 q 0,10.66687 -10.6668,10.66687 -10.6669,0 -10.6669,-10.66687 v -96.00145 q 0,-8.81788 -6.2578,-15.07572 -6.2579,-6.25793 -15.0759,-6.25793 -8.8178,0 -15.0757,6.25793 -6.2579,6.25784 -6.2579,15.07572 v 96.00145 q 0,10.66687 -10.6668,10.66687 -10.6668,0 -10.6668,-10.66687 v -96.00145 q 0,-8.81788 -6.2579,-15.07572 -6.2579,-6.25793 -15.0758,-6.25793 -8.81786,0 -15.07579,6.25793 -6.25784,6.25784 -6.25784,15.07572 v 96.00145 q 0,10.66687 -10.66687,10.66687 -10.66677,0 -10.66677,-10.66687 V 165.32153 q 0,-10.66687 10.66677,-10.66687 7.25342,0 9.81346,6.25784 10.24017,-6.25784 22.18704,-6.25784 19.2003,0 32.0005,14.50693 12.8001,-14.50693 32.0004,-14.50693 17.6359,0 30.1517,12.51576 12.5157,12.51577 12.5157,30.15153 z"
       id="path23" /><path
       style="font-size:37.3333px;font-family:monofur;-inkscape-font-specification:monofur;letter-spacing:-0.25px;stroke-width:27.429;stroke-linecap:square;paint-order:markers stroke fill"
       d="m 919.89843,293.3234 q 0,10.66687 -10.66677,10.66687 h -42.66729 q -10.66687,0 -10.66687,-10.66687 V 175.9883 h -32.00052 q -10.66677,0 -10.66677,-10.66677 0,-10.66687 10.66677,-10.66687 h 42.80956 q 10.5246,0 10.5246,10.66687 v 117.3351 h 32.00052 q 10.66677,0 10.66677,10.66677 z"
       id="path22" /><path
       style="font-size:37.3333px;font-family:monofur;-inkscape-font-specification:monofur;letter-spacing:-0.25px;stroke-width:27.429;stroke-linecap:square;paint-order:markers stroke fill"
       d="m 882.77793,106.86728 q 0,6.68455 -4.83564,11.23575 -4.69338,4.55111 -11.37792,4.55111 -6.68454,0 -11.52019,-4.55111 -4.69347,-4.5512 -4.69347,-11.23575 0,-6.68454 4.69347,-11.37801 4.83565,-4.83555 11.52019,-4.83555 6.68454,0 11.37792,4.83555 4.83564,4.69347 4.83564,11.37801 z"
       id="path21" /><path
       style="font-size:37.3333px;font-family:monofur;-inkscape-font-specification:monofur;letter-spacing:-0.25px;stroke-width:27.429;stroke-linecap:square;paint-order:markers stroke fill"
       d="m 772.99148,271.84758 q 0,2.98665 -2.2756,6.54228 -7.53786,11.52018 -22.4714,18.7736 -14.22249,6.82681 -28.72933,6.82681 -26.45373,0 -45.22743,-18.77361 -18.7736,-18.7736 -18.7736,-45.22733 V 101.3205 q 0,-10.66678 10.66687,-10.66678 10.66677,0 10.66677,10.66678 v 138.66884 q 0,17.63576 12.51577,30.15153 12.51577,12.51576 30.15162,12.51576 15.50242,0 27.59148,-10.66688 12.23133,-10.80903 14.79137,-10.80903 4.40894,0 7.68012,3.27118 3.41336,3.12892 3.41336,7.39568 z"
       id="text21" /><g
       id="g21"
       transform="translate(0,-58.678)"><path
         d="m 504.5,78.696 c 0,-6.913 -5.604,-12.518 -12.518,-12.518 H 20.018 C 13.105,66.178 7.5,71.782 7.5,78.696 v 37.482 h 497 z"
         fill="#5c90b9"
         id="path1" /><path
         d="m 7.5,116.178 v 317.126 c 0,6.913 5.604,12.518 12.518,12.518 h 471.964 c 6.913,0 12.518,-5.604 12.518,-12.518 V 116.178 Z"
         fill="#665e66"
         id="path2" /><path
         d="M 491.982,66.178 H 464.5 v 50 h 40 V 78.696 c 0,-6.913 -5.604,-12.518 -12.518,-12.518 z"
         fill="#4a80aa"
         id="path3" /><path
         d="m 464.5,116.178 v 190.145 c 0,65.997 -53.501,119.499 -119.499,119.499 H 7.5 v 7.482 c 0,6.913 5.604,12.518 12.518,12.518 h 471.964 c 6.913,0 12.518,-5.604 12.518,-12.518 V 116.178 Z"
         fill="#544f57"
         id="path4" /><path
         d="m 73.962,362.008 c -3.921,0 -7.781,-1.839 -10.217,-5.284 -3.986,-5.637 -2.647,-13.437 2.989,-17.423 l 77.796,-55.01 -77.796,-55.01 c -5.637,-3.986 -6.975,-11.786 -2.989,-17.423 3.985,-5.637 11.786,-6.976 17.423,-2.989 l 92.23,65.216 c 3.313,2.343 5.283,6.148 5.283,10.206 0,4.058 -1.97,7.863 -5.283,10.206 l -92.23,65.216 c -2.192,1.549 -4.711,2.295 -7.206,2.295 z"
         fill="#f1f1f4"
         id="path10" /><circle
         cx="37.5"
         cy="91.178001"
         r="7.5"
         id="circle14" /><circle
         cx="68.121002"
         cy="91.178001"
         r="7.5"
         id="circle15" /><circle
         cx="98.741997"
         cy="91.178001"
         r="7.5"
         id="circle16" /><path
         d="m 20.018,453.322 h 471.965 c 11.038,0 20.018,-8.98 20.018,-20.018 v -68.375 c 0,-4.142 -3.358,-7.5 -7.5,-7.5 -4.142,0 -7.5,3.358 -7.5,7.5 v 68.375 c 0,2.767 -2.251,5.018 -5.018,5.018 H 20.018 C 17.251,438.322 15,436.071 15,433.304 V 123.678 h 482 v 206.251 c 0,4.142 3.358,7.5 7.5,7.5 4.142,0 7.5,-3.358 7.5,-7.5 V 78.696 c 0,-11.038 -8.98,-20.018 -20.018,-20.018 h -89.124 c -4.142,0 -7.5,3.358 -7.5,7.5 0,4.142 3.358,7.5 7.5,7.5 h 89.124 c 2.767,0 5.018,2.251 5.018,5.018 v 29.982 H 15 V 78.696 c 0,-2.767 2.251,-5.018 5.018,-5.018 h 347.841 c 4.142,0 7.5,-3.358 7.5,-7.5 0,-4.142 -3.358,-7.5 -7.5,-7.5 H 20.018 C 8.98,58.678 0,67.658 0,78.696 v 354.608 c 0,11.038 8.98,20.018 20.018,20.018 z"
         id="path16" /><path
         d="m 54.239,346.125 c -0.903,5.265 0.298,10.567 3.382,14.928 3.743,5.294 9.852,8.455 16.341,8.455 4.15,0 8.139,-1.27 11.536,-3.671 l 92.23,-65.216 c 5.293,-3.743 8.453,-9.847 8.453,-16.33 0,-6.483 -3.16,-12.587 -8.453,-16.33 l -40.895,-28.917 c -3.382,-2.391 -8.062,-1.589 -10.454,1.793 -2.392,3.382 -1.589,8.062 1.793,10.454 l 40.895,28.917 c 1.323,0.936 2.113,2.461 2.113,4.082 0,1.621 -0.79,3.146 -2.113,4.083 l -92.23,65.216 c -1.074,0.76 -2.157,0.919 -2.876,0.919 -1.651,0 -3.143,-0.771 -4.093,-2.114 -1.592,-2.251 -1.055,-5.377 1.196,-6.969 l 77.796,-55.01 c 1.988,-1.406 3.17,-3.689 3.17,-6.124 0,-2.435 -1.182,-4.718 -3.17,-6.124 l -77.796,-55.01 c -2.251,-1.592 -2.788,-4.718 -1.195,-6.97 1.593,-2.253 4.707,-2.793 6.969,-1.195 l 22.714,16.062 c 3.382,2.393 8.062,1.59 10.454,-1.793 2.392,-3.382 1.589,-8.062 -1.793,-10.454 L 85.499,202.745 c -4.362,-3.085 -9.664,-4.286 -14.93,-3.382 -5.265,0.903 -9.863,3.803 -12.947,8.165 -6.367,9.004 -4.222,21.509 4.783,27.876 l 69.136,48.887 -69.136,48.887 c -4.363,3.083 -7.262,7.681 -8.166,12.947 z"
         id="path20" /><g
         id="g5"
         transform="matrix(0.53313718,0,0,0.53313718,187.84719,144.50811)"><g
           id="g1"><path
             d="m 203.712,366.297 c 0.888,-12.681 1.831,-25.831 2.823,-39.256 -19.115,-7.047 -38.23,-14.107 -57.346,-21.155 -1.221,-0.45 -2.355,-1.109 -3.352,-1.946 -21.595,-18.15 -43.187,-36.303 -64.777,-54.456 -9.909,-8.331 -0.249,-24.063 11.664,-18.996 25.572,10.878 51.144,21.755 76.72,32.633 0.727,0.309 1.485,0.541 2.26,0.692 l 39.12,7.607 c 1.918,-23.86 3.97,-59.044 6.102,-81.971 l -58.439,-56.547 c -1.611,-1.559 -2.72,-3.573 -3.186,-5.765 C 147.53,90.59 139.76,57.552 131.989,23.891 129.051,11.162 146.496,4.463 152.827,15.89 l 41.799,75.438 c 0.266,0.479 0.566,0.938 0.898,1.374 l 28.69,37.608 c 5.915,-50.692 12.203,-87.701 18.305,-93.803 10.924,-10.924 22.435,103.914 31.374,219.286 l 62.327,-40.479 38.669,-82.859 c 0.533,-1.142 1.253,-2.186 2.132,-3.089 L 394.4,111.488 c 8.462,-8.705 22.814,0.285 18.675,11.698 l -11.322,31.219 -15.766,84.808 c -0.527,2.833 -2.119,5.357 -4.449,7.052 l -102.489,74.582 c 6.648,96.907 10.964,181.185 10.964,181.185 h -94.989 c 0,0 0.985,-17.506 2.742,-45.734 z"
             fill="#d1a184"
             id="path1-2" /></g><g
           id="g4"><g
             id="g2"><circle
               cx="200.524"
               cy="411.297"
               r="10"
               id="circle1" /></g><g
             id="g3"><path
               d="m 448.954,175.134 -40.305,-3.114 2.785,-14.98 11.042,-30.444 c 3.504,-9.663 0.006,-19.821 -8.705,-25.277 -8.711,-5.458 -19.376,-4.17 -26.542,3.199 l -17.378,17.877 c -1.662,1.71 -3.017,3.672 -4.024,5.831 l -5.459,11.697 -11.599,-27.853 24.043,-49.696 h 24.282 c 5.523,0 10,-4.478 10,-10 0,-5.522 -4.477,-10 -10,-10 h -30.553 c -3.835,0 -7.332,2.193 -9.002,5.645 l -19.048,39.371 -9.3,-22.331 c -2.124,-5.099 -7.979,-7.512 -13.076,-5.387 -5.099,2.123 -7.51,7.978 -5.387,13.076 l 38.191,91.707 -20.55,44.033 -45.826,29.763 c -4.434,-55.519 -8.694,-100.137 -12.682,-132.798 -2.662,-21.8 -5.279,-38.915 -7.779,-50.87 -3.876,-18.532 -7.428,-25.615 -14.078,-28.073 -4.338,-1.604 -9.15,-0.482 -12.558,2.927 -4.653,4.652 -10.219,15.038 -18.152,75.318 L 203.474,86.64 c -0.039,-0.052 -0.074,-0.104 -0.103,-0.157 L 193.944,69.47 210.842,46.236 c 1.243,-1.709 1.913,-3.769 1.913,-5.882 V 20.819 c 0,-5.522 -4.477,-10 -10,-10 -5.523,0 -10,4.477 -10,10 V 37.101 L 183.251,50.168 161.573,11.043 C 156.296,1.52 145.511,-2.406 135.35,1.494 125.184,5.395 119.795,15.53 122.244,26.14 l 3.508,15.17 c 2.016,8.706 4.054,17.52 6.102,26.442 L 104.318,59.798 70.674,28.37 c -4.036,-3.769 -10.363,-3.556 -14.134,0.481 -3.77,4.036 -3.555,10.364 0.481,14.134 l 35.395,33.062 c 1.15,1.075 2.539,1.862 4.051,2.3 l 40.455,11.686 c 2.87,12.747 5.744,25.767 8.597,39.183 0.885,4.162 2.965,7.921 6.014,10.871 l 5.861,5.672 h -4.625 l -43.008,-25.827 c -4.734,-2.843 -10.877,-1.311 -13.721,3.425 -2.844,4.734 -1.31,10.878 3.424,13.722 l 22.361,13.428 -24.459,25.721 c -3.806,4.002 -3.646,10.331 0.355,14.138 1.936,1.84 4.414,2.753 6.89,2.753 2.643,0 5.283,-1.042 7.248,-3.109 l 23.061,-24.25 h 43.143 l 28.475,27.554 c -1.113,12.843 -2.2,28.554 -3.255,43.803 -0.541,7.82 -1.062,15.362 -1.575,22.344 l -24.719,-4.806 -18.412,-50.203 c -1.901,-5.185 -7.645,-7.845 -12.832,-5.945 -5.185,1.901 -7.847,7.646 -5.945,12.832 l 12.301,33.54 -55.463,-23.592 c -9.929,-4.224 -20.805,-0.751 -26.451,8.443 -5.646,9.194 -3.821,20.466 4.438,27.409 6.597,5.547 13.196,11.093 19.793,16.64 l -30.896,1.005 c -5.52,0.18 -9.849,4.801 -9.669,10.32 0.176,5.409 4.616,9.675 9.989,9.675 0.11,0 0.221,-0.002 0.331,-0.005 l 53.163,-1.729 c 5.615,4.72 11.229,9.441 16.845,14.161 l -10.816,11.44 c -1.126,1.19 -1.942,2.64 -2.376,4.221 l -9.796,35.646 c -1.463,5.325 1.668,10.828 6.993,12.292 0.887,0.244 1.778,0.36 2.656,0.36 4.39,0 8.417,-2.915 9.637,-7.354 l 9.134,-33.238 12.309,-13.019 44.089,16.264 c -0.763,10.427 -1.525,21.085 -2.274,31.781 -0.386,5.509 3.768,10.288 9.277,10.674 5.509,0.382 10.288,-3.769 10.674,-9.277 0.928,-13.255 1.877,-26.449 2.82,-39.217 0.329,-4.449 -2.329,-8.577 -6.514,-10.12 l -57.346,-21.154 c -0.138,-0.051 -0.266,-0.125 -0.377,-0.219 -21.595,-18.149 -43.186,-36.302 -64.775,-54.455 -0.431,-0.361 -0.837,-0.704 -0.265,-1.636 0.571,-0.933 1.061,-0.724 1.578,-0.504 l 76.728,32.637 c 1.373,0.583 2.807,1.022 4.259,1.303 l 39.12,7.607 c 2.795,0.543 5.688,-0.13 7.955,-1.852 2.268,-1.721 3.694,-4.326 3.922,-7.163 0.795,-9.888 1.596,-21.467 2.444,-33.726 1.182,-17.089 2.404,-34.759 3.646,-48.121 0.281,-3.02 -0.824,-6.003 -3.003,-8.112 l -58.439,-56.548 c -0.178,-0.172 -0.305,-0.406 -0.359,-0.658 C 158.461,93.921 151.739,64.882 145.238,36.8 l -3.506,-15.157 c -0.133,-0.579 -0.249,-1.078 0.784,-1.475 1.03,-0.392 1.277,0.053 1.563,0.569 l 41.799,75.438 c 0.497,0.898 1.067,1.77 1.694,2.592 l 28.691,37.608 c 2.472,3.24 6.663,4.655 10.596,3.578 3.932,-1.078 6.814,-4.436 7.287,-8.484 3.815,-32.697 7.062,-53.354 9.625,-66.402 1.969,10.754 4.366,26.661 7.12,50.189 4.087,34.915 8.472,82.458 13.031,141.31 0.273,3.518 2.379,6.632 5.542,8.193 3.164,1.564 6.917,1.343 9.875,-0.579 l 62.327,-40.48 c 1.57,-1.02 2.823,-2.461 3.615,-4.157 l 38.669,-82.86 c 0.06,-0.128 0.14,-0.244 0.24,-0.347 l 17.379,-17.878 c 0.335,-0.345 0.715,-0.736 1.584,-0.191 0.87,0.545 0.684,1.058 0.52,1.51 l -11.322,31.218 c -0.186,0.515 -0.331,1.043 -0.431,1.581 l -15.766,84.809 c -0.059,0.32 -0.238,0.604 -0.501,0.795 l -102.489,74.582 c -2.782,2.024 -4.328,5.338 -4.093,8.771 5.215,76.013 9.029,144.934 10.399,170.5 h -73.85 c 0.466,-7.941 1.188,-20.026 2.127,-35.113 0.343,-5.513 -3.847,-10.259 -9.359,-10.602 -5.516,-0.339 -10.259,3.848 -10.602,9.359 -1.738,27.935 -2.735,45.618 -2.746,45.794 -0.154,2.745 0.829,5.433 2.717,7.431 1.889,1.999 4.518,3.131 7.267,3.131 h 94.989 c 2.741,0 5.362,-1.125 7.25,-3.112 1.888,-1.987 2.877,-4.662 2.737,-7.399 -0.043,-0.827 -4.231,-82.249 -10.598,-175.84 l 53.756,-39.118 h 64.591 l 14.039,26.888 c 1.785,3.417 5.267,5.373 8.873,5.373 1.56,0 3.143,-0.366 4.62,-1.138 4.896,-2.557 6.792,-8.598 4.236,-13.493 l -16.844,-32.259 c -1.724,-3.301 -5.14,-5.371 -8.864,-5.371 h -43.167 l 16.783,-12.213 c 4.415,-3.215 7.396,-7.94 8.394,-13.309 l 9.155,-49.244 42.44,3.279 c 0.262,0.02 0.523,0.029 0.781,0.029 5.173,0 9.554,-3.985 9.96,-9.229 0.425,-5.509 -3.695,-10.317 -9.201,-10.743 z"
               id="path2-4" /></g></g></g></g></g></svg>
